<?xml version="1.0" standalone="no"?>
<!DOCTYPE svg PUBLIC "-//W3C//DTD SVG 20010904//EN"
 "http://www.w3.org/TR/2001/REC-SVG-20010904/DTD/svg10.dtd">
<svg version="1.0" xmlns="http://www.w3.org/2000/svg"
 width="657.000000pt" height="657.000000pt" viewBox="0 0 657.000000 657.000000"
 preserveAspectRatio="xMidYMid meet">
<metadata>
Created by potrace 1.14, written by Peter Selinger 2001-2017
</metadata>
<g transform="translate(0.000000,657.000000) scale(0.100000,-0.100000)"
fill="#000000" stroke="none">
<path d="M1675 5540 c-145 -18 -254 -71 -358 -174 -134 -133 -189 -264 -189
-451 0 -93 4 -122 27 -189 37 -110 76 -174 148 -247 83 -83 138 -118 274 -170
12 -4 58 -13 104 -19 184 -25 378 41 514 176 132 130 186 263 187 454 0 104
-3 123 -31 200 -17 47 -48 110 -68 140 -47 72 -152 172 -211 202 -26 12 -49
26 -52 29 -3 3 -36 15 -75 26 -81 24 -184 33 -270 23z"/>
<path d="M4805 5542 c-33 -2 -64 -7 -69 -13 -6 -5 -20 -9 -32 -9 -12 0 -59
-19 -105 -42 -99 -51 -219 -165 -263 -248 -59 -112 -76 -183 -76 -311 0 -163
33 -264 126 -388 131 -174 356 -270 568 -242 156 21 260 70 365 171 150 146
220 348 191 549 -7 45 -16 84 -21 87 -5 3 -9 13 -9 24 0 25 -54 125 -100 185
-133 172 -323 251 -575 237z"/>
<path d="M1175 4170 c-56 -14 -84 -29 -126 -67 -50 -45 -82 -93 -109 -165 -20
-52 -20 -76 -20 -1070 l0 -1018 835 0 835 0 0 540 c0 297 4 540 8 540 7 0 36
-50 142 -245 122 -225 180 -332 216 -404 48 -93 70 -121 129 -160 40 -26 41
-26 235 -26 194 0 195 0 235 26 56 38 88 75 121 144 16 33 58 114 95 180 36
66 89 165 119 220 118 221 143 265 153 265 4 0 7 -243 7 -540 l0 -540 835 0
835 0 0 1024 c0 673 -3 1027 -10 1031 -5 3 -10 16 -10 28 0 36 -55 121 -109
169 -89 80 -77 79 -727 76 l-569 -3 -48 -24 c-58 -29 -140 -120 -163 -181 -9
-25 -67 -148 -129 -275 -244 -499 -311 -637 -401 -822 l-93 -193 -141 0 -141
0 -96 198 c-52 108 -147 303 -210 432 -195 398 -292 599 -315 653 -30 72 -100
153 -162 185 l-51 27 -570 2 c-314 1 -583 -2 -600 -7z"/>
</g>
</svg>
